<svg id="Logo" xmlns="http://www.w3.org/2000/svg" viewBox="0 0 883.21 355.22"><defs><style>.cls-1{fill:#8d6852;}.cls-2,.cls-4{fill:#462e25;}.cls-3{fill:#fff;}.cls-4{font-size:111.2px;font-family: Fredoka One;}.cls-5{letter-spacing:-0.03em;}.cls-6{letter-spacing:0em;}.cls-7{letter-spacing:-0.02em;}</style></defs><g id="Violao"><path class="cls-1" d="M208.76,320.81s-.76.49-2.29,1.38-3.8,2.17-6.85,3.72-6.85,3.37-11.42,5.31a165.85,165.85,0,0,1-16,5.91,157.91,157.91,0,0,1-20.73,5,115.12,115.12,0,0,1-12.11,1.43c-1.06.1-2.13.12-3.21.17s-2.17.09-3.23.11c-2.19.05-4.39.06-6.64,0a147.29,147.29,0,0,1-28.74-3A110.5,110.5,0,0,1,67,329.66a104.81,104.81,0,0,1-27.76-22.29,127.5,127.5,0,0,1-20.43-32A188.39,188.39,0,0,1,6.57,237.54Q4.38,227.64,3,217.43c-.91-6.8-1.65-13.67-2.11-20.61s-.83-13.94-.89-21l0-1.32v-4c0-1.76,0-3.43,0-5.26s.09-3.61.14-5.42.15-3.59.23-5.39c.38-7.19,1-14.43,1.94-21.69a221.43,221.43,0,0,1,4-21.79A185,185,0,0,1,12.84,89.4a145.88,145.88,0,0,1,9.53-20.81,122.28,122.28,0,0,1,70.1-58.12A158.27,158.27,0,0,1,137.2,2.73c3.74-.12,7.42-.17,11.13-.08,3.9.1,7.63.38,11.35.77A173.64,173.64,0,0,1,181.5,7.31,191.61,191.61,0,0,1,222,22.14a179.08,179.08,0,0,1,18.31,10.5c2.92,1.91,5.76,3.93,8.54,6l4,3.09c1.34,1.07,2.49,1.9,3.7,2.79A86.45,86.45,0,0,0,288.79,59a70.44,70.44,0,0,0,8.47,1.28,70.43,70.43,0,0,0,8.45.31,79.89,79.89,0,0,0,16.48-2.14,90.83,90.83,0,0,0,15.45-5.21l1.85-.81,1.81-.87c1.2-.58,2.4-1.17,3.56-1.81l3.65-2,.93-.49,1.06-.51q1.08-.54,2.1-1a50.85,50.85,0,0,1,17.07-4.06,51.42,51.42,0,0,1,16.47,1.79,67.56,67.56,0,0,1,26,14.21,88.29,88.29,0,0,1,16.73,19.3,102.07,102.07,0,0,1,9.63,19.18,100.35,100.35,0,0,1,6.23,29.08c.24,3.42.18,6,.17,7.8s-.1,2.67-.1,2.67l-.16-2.66c-.15-1.75-.37-4.35-.88-7.71a103.28,103.28,0,0,0-8.38-27.87,97.39,97.39,0,0,0-10.55-17.68,87.8,87.8,0,0,0-16.77-17,60.38,60.38,0,0,0-23.82-11.3,45.34,45.34,0,0,0-13.83-.79,41.32,41.32,0,0,0-13.73,4c-.56.26-1.09.54-1.59.82l-.77.41-.87.52-3.56,2.14c-1.24.76-2.52,1.46-3.81,2.16l-1.94,1.06-2,1a101.11,101.11,0,0,1-17,6.66A86.84,86.84,0,0,1,286.4,71.6a98.7,98.7,0,0,1-37.85-15.52c-1.47-1-3-2.06-4.27-3l-3.93-2.86c-2.58-1.82-5.21-3.6-7.93-5.28a165.53,165.53,0,0,0-17-9.23,184.32,184.32,0,0,0-37.52-12.92A158.79,158.79,0,0,0,158,19.61c-3.32-.32-6.69-.52-9.9-.58-3.42-.05-6.87,0-10.27.18a146.71,146.71,0,0,0-40,7.24A107.34,107.34,0,0,0,37.07,76.82a152.48,152.48,0,0,0-14.71,38,236,236,0,0,0-6.12,40.54c-.1,1.7-.23,3.41-.31,5.09l-.21,5c-.08,1.65-.08,3.45-.13,5.17l.29,2.6.34.56v1.91c0,6.79-.25,13.51,0,20.17a284.36,284.36,0,0,0,4.18,38.81,181.73,181.73,0,0,0,10.18,35.51,129.15,129.15,0,0,0,7.71,15.8,111.74,111.74,0,0,0,9.6,14,94.35,94.35,0,0,0,24,21.23A105.57,105.57,0,0,0,99.41,333a140,140,0,0,0,27.08,4.46c2.17.15,4.32.27,6.41.35,1.08,0,2.12.07,3.14.08s2,0,3.05,0c4,0,7.94-.25,11.69-.6a150.64,150.64,0,0,0,20.49-3.39A193.39,193.39,0,0,0,199.22,325C205.52,322.47,208.76,320.81,208.76,320.81Z"/><path class="cls-2" d="M208.76,320.81s-3.25,1.62-9.6,4.11a206.7,206.7,0,0,1-28.23,8.84,189.22,189.22,0,0,1-20.85,3.74,159.64,159.64,0,0,1-25,1,138.55,138.55,0,0,1-28.35-3.82,108.47,108.47,0,0,1-29.57-12,104.78,104.78,0,0,1-26.56-22.57,129.31,129.31,0,0,1-19.46-31.75A193.21,193.21,0,0,1,9.37,231C8,224.45,6.84,217.8,6,211.07s-1.54-13.55-2-20.43-.72-13.82-.76-20.81c0-.89,0-1.71,0-2.67v-2.6c0-1.74,0-3.45,0-5.24s.1-3.55.15-5.34.16-3.55.24-5.33c.4-7.1,1-14.26,2-21.42s2.3-14.32,4-21.45A163.89,163.89,0,0,1,25.43,64.31,118.67,118.67,0,0,1,93.58,7.8,157,157,0,0,1,137.33.15C141,0,144.64,0,148.28,0s7.42.34,11.06.71a170.46,170.46,0,0,1,21.41,3.77A192.57,192.57,0,0,1,220.61,19a176,176,0,0,1,18,10.22C241.54,31,244.34,33,247.08,35l4,3c1.33,1,2.55,1.93,3.82,2.83a88.6,88.6,0,0,0,33.41,14.74,73.3,73.3,0,0,0,8.78,1.24,75.28,75.28,0,0,0,8.74.24,82.25,82.25,0,0,0,17-2.38,93.76,93.76,0,0,0,15.78-5.51l1.87-.84,1.84-.92c1.22-.6,2.44-1.21,3.62-1.88,2.32-1.26,4.84-2.76,7.54-3.92a48.64,48.64,0,0,1,16.38-4,50.26,50.26,0,0,1,15.93,1.58,66.36,66.36,0,0,1,25.52,13.61A88,88,0,0,1,428,71.66a100.48,100.48,0,0,1,9.83,18.87,100.45,100.45,0,0,1,6.66,28.83c.28,3.41.29,6,.32,7.78s0,2.67,0,2.67,0-.9-.1-2.66-.26-4.36-.72-7.73a103,103,0,0,0-8-28.12,98.26,98.26,0,0,0-10.36-18A87.57,87.57,0,0,0,408.86,55.8,62,62,0,0,0,384.6,43.9a46.58,46.58,0,0,0-14.38-1,43,43,0,0,0-14.41,4c-2.28,1.06-4.47,2.43-7,3.9-1.22.74-2.48,1.42-3.76,2.09l-1.91,1-2,1a99.65,99.65,0,0,1-16.71,6.35A84.45,84.45,0,0,1,286.9,63a96.37,96.37,0,0,1-36.7-15.29c-1.42-1-2.88-2-4.16-2.95l-3.95-2.91c-2.61-1.87-5.29-3.7-8.05-5.43a168.48,168.48,0,0,0-17.28-9.52,183.35,183.35,0,0,0-38.14-13.29,160.64,160.64,0,0,0-20.25-3.31c-3.41-.34-6.85-.56-10.21-.63s-7,0-10.44.14a147.9,147.9,0,0,0-41,7.33A111,111,0,0,0,34,69.11a154.05,154.05,0,0,0-15,39A241.26,241.26,0,0,0,13,149.21c-.1,1.71-.23,3.44-.3,5.15s-.14,3.41-.2,5.11-.07,3.47-.11,5.19l0,2.6c0,.77,0,1.69,0,2.52,0,6.85.17,13.63.5,20.35a290.84,290.84,0,0,0,4.62,39.21,185.18,185.18,0,0,0,10.55,36,124.84,124.84,0,0,0,17.77,30.44A99,99,0,0,0,57.26,308a94.81,94.81,0,0,0,12.89,9.74A105.74,105.74,0,0,0,98,330a134.07,134.07,0,0,0,27.31,4.65,172.15,172.15,0,0,0,45.24-2.84A225.9,225.9,0,0,0,199,324.41C205.42,322.25,208.76,320.81,208.76,320.81Z"/><path class="cls-1" d="M420.76,144.81l10-.75q5-.37,10-.68c6.64-.41,13.28-.88,19.91-1.21l19.91-1.06c3.32-.19,6.63.14,9.94.22l9.93.23,79.5,1.75,159,3.5L735.55,148l.75-.67.8-.74c.53-.51,1-1,1.56-1.55a41.82,41.82,0,0,0,2.81-3.25,22.09,22.09,0,0,0,2.12-3.28c.13-.26.25-.52.36-.77s.2-.49.26-.71a4.75,4.75,0,0,0,.16-.62c0-.19,0-.34.07-.48l.64-5.22,4.85.48,93.66,9.33,5.16.52-.7,5.18c-.1.69-.19,1.64-.26,2.48s-.11,1.75-.14,2.63c-.06,1.76,0,3.54,0,5.31l0,5.32c0,1.78.06,3.56.16,5.34a74.37,74.37,0,0,0,4.09,20.89,60,60,0,0,0,4.46,9.72,51.78,51.78,0,0,0,6.37,8.7c1.22,1.34,2.52,2.6,3.87,3.84a52.93,52.93,0,0,0,4.29,3.44,61.68,61.68,0,0,0,9.62,5.61A54.4,54.4,0,0,1,860.34,209,58,58,0,0,1,846,190.69a82.23,82.23,0,0,1-7.28-22.3q-.53-2.89-.88-5.82a52.54,52.54,0,0,1-.46-5.87c0-2,.08-3.92.2-5.89.06-1,.14-2,.23-3s.17-1.93.33-3.09l4.45,5.69-93.66-9.33,5.49-4.74a16,16,0,0,1-.24,1.92,13.91,13.91,0,0,1-.45,1.72,15.81,15.81,0,0,1-.57,1.56c-.21.5-.43,1-.66,1.43a32,32,0,0,1-3.11,4.85,49.94,49.94,0,0,1-3.52,4.07c-.61.64-1.23,1.26-1.87,1.87l-1,.91c-.34.31-.64.57-1.06.93l-1.42,1.21-1.91,0-159-3.5-79.5-1.75-9.93-.21c-3.32-.06-6.63.13-9.94-.21l-19.84-1.94c-6.62-.61-13.23-1.38-19.84-2.08-3.31-.34-6.61-.72-9.92-1.11Z"/><path class="cls-2" d="M420.76,144.81l19.82-.38,19.82-.29q19.82-.24,39.63-.36l19.82-.12,19.81,0,19.82,0,19.81,0c13.21,0,26.42,0,39.63.16l39.62.28,39.63.45,19.81.25,19.81.32-1.77.64.83-.72.84-.78c.56-.53,1.1-1.07,1.64-1.62a43.55,43.55,0,0,0,3-3.42,24.84,24.84,0,0,0,2.38-3.63c.16-.31.3-.62.43-.92s.26-.62.35-.91a8.86,8.86,0,0,0,.23-.88c.06-.29.09-.56.12-.83l.26-2.75,2.6.28,23.4,2.5,23.39,2.56,23.4,2.57,23.38,2.64,1.7.19-.2,1.67c-.22,1.83-.35,3.78-.44,5.69s-.12,3.84-.1,5.76a113.91,113.91,0,0,0,.65,11.53,88,88,0,0,0,5.31,22.4,59.51,59.51,0,0,0,12.09,19.52,54.57,54.57,0,0,0,4.21,4,47.76,47.76,0,0,0,4.64,3.5,50.46,50.46,0,0,0,5,3c1.71.92,3.5,1.69,5.3,2.44a53.42,53.42,0,0,1-19.91-12.15,60.73,60.73,0,0,1-13.14-19.53A90.25,90.25,0,0,1,841.2,165a110.93,110.93,0,0,1-1-11.8q-.1-3,0-5.93c0-2,.12-3.93.32-6l1.49,1.86-23.44-2L795.05,139l-23.44-2.11-23.44-2.17,2.87-2.47a14.41,14.41,0,0,1-1.64,5.67,29.93,29.93,0,0,1-2.85,4.5,48.27,48.27,0,0,1-3.34,3.9c-.58.61-1.18,1.21-1.79,1.8l-.92.88-1,.88-.74.63h-1l-19.81-.05-19.82-.13-39.62-.29-39.63-.47c-13.21-.13-26.41-.39-39.62-.6l-19.81-.32-19.81-.41-19.81-.42L500,147.35q-19.81-.48-39.62-1.12l-19.81-.66Z"/><path class="cls-1" d="M420.76,203.81c6.57-.94,13.13-1.74,19.69-2.5s13.13-1.47,19.69-2.14c1.64-.15,3.28-.36,4.92-.46s3.28-.07,4.92,0c3.28.06,6.57-.06,9.85-.06H716.08c1.64,0,3.28.11,4.92,0a27.92,27.92,0,0,1,4.92.15l9.84,1.05,1.42.16.51.36c.71.49,1.25.92,1.85,1.39s1.16.93,1.72,1.41q1.69,1.44,3.27,3a43,43,0,0,1,3,3.33c.47.59.93,1.18,1.36,1.81s.85,1.27,1.24,1.93a21,21,0,0,1,1,2.06,16.93,16.93,0,0,1,.78,2.24,10.44,10.44,0,0,1,.35,2.38,8.11,8.11,0,0,1-.25,2.4,5.51,5.51,0,0,1-.36,1.13,5.4,5.4,0,0,1-.52,1,5.1,5.1,0,0,1-.64,1,7.35,7.35,0,0,1-.72.85l-.8.75-.86.65a19,19,0,0,1-1.81,1.1,18.4,18.4,0,0,0,1.42-1.52l.63-.8.53-.86a7.16,7.16,0,0,0,.43-.88,4.09,4.09,0,0,0,.31-.89,4.22,4.22,0,0,0,.19-.91,4.57,4.57,0,0,0,0-.9,6.1,6.1,0,0,0-.28-1.75,8.61,8.61,0,0,0-.68-1.64,12.39,12.39,0,0,0-1-1.53,18.27,18.27,0,0,0-1.22-1.42c-.44-.46-.88-.91-1.37-1.33s-1-.83-1.48-1.23c-1-.79-2.11-1.53-3.22-2.23s-2.23-1.37-3.39-2c-.57-.31-1.16-.61-1.74-.9s-1.2-.58-1.7-.78l1.92.5-9.84,1a28.87,28.87,0,0,1-4.92,0c-1.64-.08-3.28-.15-4.92-.15H479.83c-3.28,0-6.57.06-9.85.12-1.64.05-3.28.21-4.92.12s-3.28-.29-4.92-.44c-6.56-.67-13.13-1.33-19.69-2.13S427.33,204.75,420.76,203.81Z"/><circle class="cls-2" cx="324.76" cy="173.81" r="46"/><rect class="cls-1" x="179.76" y="110.81" width="23" height="133" rx="11.5"/><path class="cls-3" d="M185.76,142.81l2.29-.23c1.49-.12,3.68-.36,6.46-.56s6.16-.5,10-.73,8.25-.55,13-.76,9.94-.52,15.4-.72,11.23-.39,17.19-.53,12.13-.27,18.39-.34,12.62-.1,19-.13,12.72,0,19,.12,12.42.19,18.39.33,11.72.34,17.19.54,10.63.46,15.4.72,9.14.5,13,.76,7.26.52,10,.74,5,.43,6.46.56l2.28.23L387,143c-1.49.13-3.68.36-6.46.57s-6.16.5-10,.73-8.24.55-13,.77-9.94.51-15.4.71-11.23.4-17.19.54-12.13.27-18.39.33-12.62.1-19,.12-12.71,0-19-.12-12.42-.19-18.39-.34-11.72-.33-17.19-.54-10.63-.46-15.4-.71-9.14-.51-13-.76-7.25-.52-10-.74-5-.43-6.46-.56Z"/><path class="cls-3" d="M185.76,156.21l2.29-.23c1.49-.12,3.68-.36,6.46-.56s6.16-.5,10-.73,8.25-.55,13-.76,9.94-.52,15.4-.72,11.23-.39,17.19-.53,12.13-.27,18.39-.34,12.62-.1,19-.13,12.72,0,19,.12,12.42.19,18.39.34,11.72.33,17.19.53,10.63.46,15.4.72,9.14.5,13,.76,7.26.52,10,.74,5,.43,6.46.56l2.28.23-2.28.23c-1.49.13-3.68.36-6.46.57s-6.16.5-10,.73-8.24.55-13,.77-9.94.51-15.4.71-11.23.4-17.19.54-12.13.27-18.39.33-12.62.1-19,.12-12.71,0-19-.12-12.42-.19-18.39-.34-11.72-.33-17.19-.54-10.63-.46-15.4-.71-9.14-.51-13-.76-7.25-.52-10-.74-5-.43-6.46-.56Z"/><path class="cls-3" d="M185.76,169.61l2.29-.23c1.49-.12,3.68-.36,6.46-.56s6.16-.5,10-.73,8.25-.55,13-.76,9.94-.52,15.4-.72,11.23-.39,17.19-.53,12.13-.27,18.39-.34,12.62-.1,19-.13,12.72,0,19,.12,12.42.19,18.39.33,11.72.34,17.19.54,10.63.46,15.4.72,9.14.5,13,.76,7.26.52,10,.74,5,.43,6.46.56l2.28.23-2.28.23c-1.49.13-3.68.36-6.46.57s-6.16.5-10,.73-8.24.55-13,.77-9.94.51-15.4.71-11.23.4-17.19.54-12.13.27-18.39.33-12.62.1-19,.12-12.71,0-19-.12-12.42-.19-18.39-.34-11.72-.33-17.19-.54-10.63-.46-15.4-.71-9.14-.51-13-.76-7.25-.52-10-.74-5-.43-6.46-.56Z"/><path class="cls-3" d="M185.76,183l2.29-.23c1.49-.12,3.68-.36,6.46-.56s6.16-.5,10-.73,8.25-.55,13-.76,9.94-.52,15.4-.72,11.23-.39,17.19-.53,12.13-.27,18.39-.34,12.62-.1,19-.13,12.72,0,19,.12,12.42.19,18.39.33,11.72.34,17.19.54,10.63.46,15.4.72,9.14.5,13,.76,7.26.52,10,.74,5,.43,6.46.56l2.28.23-2.28.23c-1.49.13-3.68.36-6.46.57s-6.16.5-10,.73-8.24.55-13,.77-9.94.51-15.4.71-11.23.4-17.19.54-12.13.27-18.39.33-12.62.1-19,.12-12.71,0-19-.12-12.42-.19-18.39-.34-11.72-.33-17.19-.54-10.63-.46-15.4-.71-9.14-.51-13-.76-7.25-.52-10-.74-5-.43-6.46-.56Z"/><path class="cls-3" d="M185.76,196.81l2.29-.23c1.49-.12,3.68-.36,6.46-.56s6.16-.5,10-.73,8.25-.55,13-.76,9.94-.52,15.4-.72,11.23-.39,17.19-.53,12.13-.27,18.39-.34,12.62-.1,19-.13,12.72,0,19,.12,12.42.19,18.39.33,11.72.34,17.19.54,10.63.46,15.4.72,9.14.5,13,.76,7.26.52,10,.74,5,.43,6.46.56l2.28.23L387,197c-1.49.13-3.68.36-6.46.57s-6.16.5-10,.73-8.24.55-13,.77-9.94.51-15.4.71-11.23.4-17.19.54-12.13.27-18.39.33-12.62.1-19,.12-12.71,0-19-.12-12.42-.19-18.39-.34-11.72-.33-17.19-.54-10.63-.46-15.4-.71-9.14-.51-13-.76-7.25-.52-10-.74-5-.43-6.46-.56Z"/><path class="cls-3" d="M185.76,209.81l2.29-.23c1.49-.12,3.68-.36,6.46-.56s6.16-.5,10-.73,8.25-.55,13-.76,9.94-.52,15.4-.72,11.23-.39,17.19-.53,12.13-.27,18.39-.34,12.62-.1,19-.13,12.72,0,19,.12,12.42.19,18.39.33,11.72.34,17.19.54,10.63.46,15.4.72,9.14.5,13,.76,7.26.52,10,.74,5,.43,6.46.56l2.28.23L387,210c-1.49.13-3.68.36-6.46.57s-6.16.5-10,.73-8.24.55-13,.77-9.94.51-15.4.71-11.23.4-17.19.54-12.13.27-18.39.33-12.62.1-19,.12-12.71,0-19-.12-12.42-.19-18.39-.34-11.72-.33-17.19-.54-10.63-.46-15.4-.71-9.14-.51-13-.76-7.25-.52-10-.74-5-.43-6.46-.56Z"/></g><text class="cls-4" transform="translate(225.45 328.98) scale(0.98 1)">M<tspan class="cls-5" x="96.74" y="0">U</tspan><tspan class="cls-6" x="174.13" y="0">SI</tspan><tspan class="cls-7" x="267.54" y="0">C</tspan><tspan x="340.82" y="0">ANDO</tspan></text></svg>